<svg id="svg" version="1.1" xmlns="http://www.w3.org/2000/svg" xmlns:xlink="http://www.w3.org/1999/xlink" width="400" height="418.2311448724905" viewBox="0, 0, 400,418.2311448724905"><g id="svgg"><path id="path0" d="M190.233 0.243 C 77.193 5.697,-9.102 104.146,0.772 216.386 C 11.531 338.688,129.610 422.267,249.267 392.275 C 343.853 368.568,407.764 278.897,399.225 181.877 C 389.846 75.309,297.517 -4.934,190.233 0.243 M211.720 4.357 C 324.396 11.061,408.001 110.944,394.555 222.789 C 389.035 268.706,365.198 314.499,331.506 343.911 C 286.108 383.541,229.036 400.768,171.568 392.188 C 165.105 391.223,164.068 391.050,160.946 390.423 C 60.723 370.295,-7.287 275.888,5.554 174.715 C 18.491 72.790,108.724 -1.772,211.720 4.357 M193.597 10.203 C 101.323 13.485,24.742 83.608,13.464 175.149 C 1.835 269.533,62.173 357.683,154.314 380.921 C 157.119 381.629,159.539 382.160,159.692 382.101 C 160.242 381.890,165.318 378.276,166.632 377.159 C 168.313 375.731,168.973 374.837,169.386 373.432 C 169.565 372.825,170.116 371.644,170.611 370.808 C 171.106 369.973,172.556 367.238,173.834 364.731 C 177.468 357.602,180.091 352.751,181.469 350.613 C 184.106 346.520,184.150 345.290,181.906 338.585 C 180.179 333.424,178.694 329.902,177.115 327.221 C 176.540 326.246,174.483 322.566,172.542 319.045 C 154.522 286.339,152.955 283.633,150.615 281.173 C 148.465 278.914,147.832 277.953,146.059 274.256 C 143.088 268.060,142.998 267.769,143.056 264.550 C 143.112 261.402,142.895 260.727,142.223 261.959 C 139.185 267.534,134.722 269.265,133.573 265.314 C 132.827 262.748,131.308 263.373,131.308 266.246 C 131.308 267.551,135.275 271.933,139.030 274.773 C 141.767 276.843,141.617 276.556,141.617 279.740 C 141.617 285.166,140.822 285.827,136.750 283.785 C 129.241 280.019,123.903 276.475,121.914 273.935 C 120.154 271.688,120.154 271.689,120.121 267.065 C 120.094 263.291,120.042 262.766,119.507 260.879 C 118.346 256.790,118.344 256.758,119.027 255.151 C 119.955 252.968,122.769 248.421,125.598 244.535 C 128.505 240.541,128.918 239.822,128.925 238.750 C 128.948 234.980,137.222 228.434,146.066 225.189 C 150.139 223.694,151.796 222.908,151.884 222.427 C 151.993 221.836,145.137 206.670,141.297 199.013 C 140.606 197.634,139.795 195.827,139.495 194.997 C 139.195 194.168,138.193 191.975,137.268 190.125 C 136.342 188.275,135.287 186.126,134.922 185.350 C 134.313 184.056,128.783 173.101,125.898 167.473 C 123.012 161.845,124.808 154.835,131.928 143.938 C 133.494 141.541,134.806 139.260,135.234 138.187 C 136.338 135.422,136.697 134.966,138.503 134.029 C 141.843 132.297,141.894 131.659,138.762 130.789 L 137.109 130.329 135.551 126.315 C 131.675 116.321,131.409 115.944,127.072 114.263 C 124.953 113.442,124.362 112.955,124.362 112.029 C 124.362 108.671,121.901 105.364,118.502 104.154 C 114.631 102.777,112.926 99.085,114.052 94.520 C 114.480 92.784,114.685 91.244,114.804 88.877 C 115.054 83.902,116.740 79.565,121.300 72.170 C 129.221 59.322,134.525 55.056,146.596 51.826 C 151.275 50.574,158.721 51.606,163.691 54.196 C 167.804 56.339,174.995 63.135,181.894 71.397 C 188.288 79.055,192.477 83.027,196.005 84.776 C 196.650 85.096,197.692 85.839,198.321 86.427 C 200.233 88.216,202.702 89.083,207.488 89.645 C 208.692 89.787,209.908 90.070,210.412 90.326 C 211.448 90.854,218.271 91.857,220.727 91.844 C 221.622 91.839,223.611 91.991,225.146 92.182 C 227.560 92.481,228.133 92.488,229.378 92.233 C 231.229 91.854,236.664 91.901,240.209 92.326 C 243.798 92.757,245.527 93.563,248.320 96.111 C 248.961 96.694,249.897 97.382,250.402 97.638 C 250.906 97.895,251.806 98.519,252.401 99.025 C 252.996 99.531,253.785 100.177,254.153 100.459 C 254.521 100.741,256.169 102.499,257.815 104.366 C 261.230 108.239,262.011 108.976,263.313 109.559 C 265.476 110.528,267.736 112.652,269.404 115.284 C 269.833 115.960,271.177 117.474,272.390 118.648 C 274.998 121.170,277.733 124.268,279.354 126.538 C 280.484 128.120,281.004 129.078,282.697 132.697 C 283.445 134.296,284.911 136.553,289.759 143.570 C 294.396 150.281,295.940 155.010,299.278 172.719 C 299.947 176.270,300.324 177.730,300.902 179.013 C 303.386 184.523,306.204 197.058,307.084 206.511 C 307.223 208.004,307.516 209.508,307.868 210.526 C 308.177 211.422,308.773 213.473,309.192 215.084 C 309.611 216.696,310.189 218.711,310.475 219.563 C 311.225 221.792,311.864 225.134,312.100 228.062 C 312.212 229.459,312.448 231.004,312.624 231.494 C 313.094 232.800,311.946 240.708,310.248 247.869 C 309.836 249.607,309.297 252.373,309.050 254.015 C 308.803 255.657,307.965 259.558,307.187 262.683 C 305.220 270.590,305.182 270.350,308.351 270.127 C 313.045 269.797,318.577 272.156,319.608 274.927 C 319.820 275.497,320.317 276.330,320.713 276.778 C 321.206 277.335,321.435 277.814,321.440 278.297 C 321.457 279.928,323.106 282.345,325.122 283.696 C 328.521 285.974,330.468 288.595,331.308 292.024 C 331.513 292.859,331.879 293.932,332.121 294.408 C 332.941 296.017,332.195 302.849,330.841 306.131 C 328.733 311.240,327.890 315.956,328.361 320.004 C 328.501 321.208,328.699 324.292,328.802 326.858 C 328.904 329.425,329.095 331.800,329.226 332.136 C 329.356 332.472,329.465 333.351,329.468 334.089 L 329.473 335.431 334.305 330.548 C 401.605 262.527,406.991 154.514,346.794 80.057 C 309.522 33.958,252.809 8.098,193.597 10.203 M157.895 152.863 C 154.321 154.132,153.124 155.222,151.233 158.928 C 149.871 161.600,149.954 162.516,151.953 166.867 C 153.725 170.723,161.537 182.172,162.702 182.619 C 164.075 183.146,164.964 172.744,164.086 166.412 C 163.850 164.712,163.459 161.794,163.217 159.928 C 162.704 155.971,162.471 155.215,161.228 153.452 C 160.157 151.933,160.394 151.975,157.895 152.863 M227.538 213.916 C 226.377 215.731,223.338 222.040,223.192 222.938 C 223.025 223.969,222.916 223.953,230.317 224.029 L 236.326 224.091 237.106 223.337 C 238.268 222.214,238.822 220.100,238.272 218.892 C 237.854 217.974,234.146 215.416,230.547 213.563 C 228.421 212.469,228.467 212.463,227.538 213.916 " stroke="none" fill="#fcd434" fill-rule="evenodd"></path></g></svg>