<?xml version="1.0" encoding="UTF-8" standalone="no"?>
<!-- Created with Inkscape (http://www.inkscape.org/) -->

<svg
   xmlns:dc="http://purl.org/dc/elements/1.1/"
   xmlns:cc="http://creativecommons.org/ns#"
   xmlns:rdf="http://www.w3.org/1999/02/22-rdf-syntax-ns#"
   xmlns:svg="http://www.w3.org/2000/svg"
   xmlns="http://www.w3.org/2000/svg"
   version="1.1"
   width="892.91339"
   height="180.70866"
   id="svg14821">
  <defs
     id="defs14823" />
  <metadata
     id="metadata14826">
    <rdf:RDF>
      <cc:Work
         rdf:about="">
        <dc:format>image/svg+xml</dc:format>
        <dc:type
           rdf:resource="http://purl.org/dc/dcmitype/StillImage" />
        <dc:title></dc:title>
      </cc:Work>
    </rdf:RDF>
  </metadata>
  <g
     transform="translate(-94.78506,-323.04023)"
     id="layer1">
    <g
       transform="matrix(3.3828463,0,0,3.3828463,-222.31494,-1203.8647)"
       id="g15030">
      <path
         d="m 194.1991,478.91566 c 0.51125,0.14612 1.314,0.59387 1.3635,2.21475 0.0162,0.59662 0.0376,0.53025 0.0484,0.779 0.0489,1.1195 -0.80325,1.26562 -1.21675,1.26562 -0.58612,0 -3.82212,0.0275 -3.82212,0.0275 -0.0681,-0.0781 -0.0827,-0.0555 -0.0827,-0.12312 0,0 0.216,-1.43363 0.98725,-2.59225 0.239,-0.35975 1.04337,-1.45013 1.99237,-1.59575 0.293,-0.0455 0.53775,-0.0312 0.73013,0.0242 z m -0.5625,-1.1025 0.82287,0 c 1.29438,0.10937 2.101,0.63987 2.551,0.96687 0.95675,0.69538 1.56988,2.18013 1.66725,2.83713 0.009,0.0594 0.1215,0.4115 0.1215,0.87612 0,0.28788 0.0489,0.5115 0.0214,0.95638 -0.0152,0.24675 -0.0146,0.43612 -0.006,0.68337 -0.0394,0.0346 -0.027,0.0615 -0.12313,0.0615 l -8.14225,0.002 c -0.221,0 -0.22162,0.133 -0.22387,0.26038 0,0.0676 0.0529,0.89212 0.0529,1.297 0,0.005 0.0456,1.58312 0.95512,3.331 0.63113,1.21625 1.65438,2.389 3.20688,2.389 0.97762,0 1.83087,-0.50263 1.85337,-0.517 0.17887,-0.12138 0.62325,-0.37625 0.92537,-0.67888 0.70588,-0.70525 0.66038,-0.82287 0.80213,-0.82287 0.009,0 0.70312,0.4615 0.70312,0.58287 0,0.0473 -0.90112,1.33863 -0.90112,1.33863 -0.16425,0.27575 -0.882,1.06412 -1.24088,1.33875 -0.8275,0.63275 -1.63075,0.87612 -2.53124,0.9975 -0.42138,0.0571 -0.508,0.0456 -1.09013,0 -2.1955,-0.17025 -3.69625,-2.02038 -4.05225,-2.44713 -0.94225,-1.1305 -1.50137,-3.36512 -1.50137,-4.13475 0,-0.006 -0.0804,-0.57787 -0.0826,-0.72025 -0.004,-0.18062 0.0331,-0.63 0.0331,-1.50837 0,-0.0248 0.0731,-0.94925 0.414,-2.06925 0.97262,-3.19588 3.3345,-4.9895 5.76512,-5.02075"
         id="path12713"
         style="fill:#ffffff;fill-opacity:1;fill-rule:evenodd;stroke:none" />
      <path
         d="m 124.40197,478.92166 c 0.51088,0.14612 1.3135,0.59375 1.36288,2.21487 0.0165,0.5965 0.0379,0.53 0.0486,0.77888 0.0486,1.11962 -0.80313,1.26562 -1.21675,1.26562 -0.58613,0 -3.82238,0.028 -3.82238,0.028 -0.0679,-0.0785 -0.0824,-0.0554 -0.0824,-0.1235 0,0 0.21613,-1.43375 0.98738,-2.59162 0.23862,-0.3605 1.04312,-1.45088 1.99237,-1.59638 0.29275,-0.0451 0.53725,-0.0314 0.73025,0.0241 z m -0.56275,-1.10213 0.82288,0 c 1.294,0.109 2.10062,0.63963 2.55075,0.967 0.95675,0.69488 1.57,2.17975 1.6675,2.83675 0.008,0.0592 0.12162,0.41138 0.12162,0.87613 0,0.28837 0.0486,0.51137 0.0211,0.95637 -0.0154,0.2465 -0.0145,0.43613 -0.006,0.68338 -0.0392,0.035 -0.0266,0.0614 -0.12337,0.0614 l -8.14213,0.002 c -0.22062,0 -0.22175,0.133 -0.22387,0.2605 0,0.0675 0.0532,0.892 0.0532,1.29737 0,0.004 0.0456,1.58263 0.95475,3.33113 0.63137,1.21562 1.65425,2.38837 3.20712,2.38837 0.97725,0 1.83063,-0.50262 1.85313,-0.51687 0.17912,-0.12138 0.6235,-0.37625 0.92562,-0.67838 0.70563,-0.70587 0.6605,-0.82287 0.80225,-0.82287 0.008,0 0.70263,0.46087 0.70263,0.58225 0,0.0473 -0.90063,1.33862 -0.90063,1.33862 -0.16462,0.27588 -0.88225,1.06413 -1.24125,1.33875 -0.8275,0.63275 -1.63062,0.87613 -2.53087,0.99813 -0.42163,0.0566 -0.50838,0.045 -1.0905,0 -2.19525,-0.17088 -3.69625,-2.021 -4.052,-2.44775 -0.94238,-1.1305 -1.50163,-3.36525 -1.50163,-4.13475 0,-0.006 -0.0801,-0.57788 -0.0823,-0.7195 -0.004,-0.18138 0.0331,-0.63075 0.0331,-1.50913 0,-0.0246 0.0731,-0.94912 0.41363,-2.06862 0.97287,-3.1965 3.33462,-4.98975 5.76537,-5.021"
         id="path12715"
         style="fill:#ffffff;fill-opacity:1;fill-rule:evenodd;stroke:none" />
      <path
         d="m 270.80147,478.87991 c 0.51238,0.14612 1.314,0.59387 1.3635,2.21487 0.0169,0.59663 0.0376,0.53 0.0484,0.77888 0.0495,1.11962 -0.80325,1.26562 -1.21613,1.26562 -0.58675,0 -3.82337,0.028 -3.82337,0.028 -0.0669,-0.0779 -0.081,-0.0555 -0.081,-0.1235 0,0 0.2155,-1.43375 0.98662,-2.59175 0.238,-0.36037 1.0435,-1.45025 1.993,-1.59625 0.29188,-0.045 0.53713,-0.0307 0.729,0.0241 z m -0.5625,-1.10225 0.82288,0 c 1.29437,0.10912 2.101,0.63975 2.551,0.96712 0.95737,0.69488 1.5705,2.17975 1.66775,2.83663 0.007,0.0594 0.121,0.4115 0.121,0.87625 0,0.28837 0.0495,0.51137 0.0219,0.95637 -0.0151,0.2465 -0.014,0.43663 -0.006,0.68338 -0.04,0.035 -0.0265,0.0615 -0.12325,0.0615 l -8.14325,0.002 c -0.21937,0 -0.2205,0.13287 -0.22275,0.26037 0,0.068 0.0529,0.89213 0.0529,1.29738 0,0.004 0.0461,1.58262 0.9545,3.33112 0.63175,1.21563 1.65437,2.3885 3.20688,2.3885 0.97762,0 1.8315,-0.50212 1.85337,-0.517 0.17888,-0.12137 0.62388,-0.37625 0.92588,-0.67837 0.70537,-0.70588 0.66037,-0.82288 0.80212,-0.82288 0.009,0 0.702,0.46088 0.702,0.58225 0,0.0473 -0.89938,1.33863 -0.89938,1.33863 -0.16487,0.27575 -0.88262,1.06412 -1.2415,1.33875 -0.82737,0.63275 -1.63062,0.87612 -2.53125,0.99812 -0.42187,0.0566 -0.509,0.045 -1.09012,0 -2.196,-0.17025 -3.69675,-2.021 -4.05275,-2.44787 -0.94163,-1.12988 -1.50075,-3.365 -1.50075,-4.1345 0,-0.006 -0.0805,-0.578 -0.0821,-0.71963 -0.005,-0.18137 0.0326,-0.63062 0.0326,-1.509 0,-0.0247 0.0736,-0.94925 0.414,-2.06875 0.9725,-3.1965 3.3345,-4.98975 5.7645,-5.02112"
         id="path12717"
         style="fill:#ffffff;fill-opacity:1;fill-rule:evenodd;stroke:none" />
      <path
         d="m 102.91747,470.57891 2.362,0.0424 c 5.27838,0.51525 6.8525,3.36837 7.24575,8.58225 0.0745,0.98587 0.0917,1.88025 0.0656,3.08275 -0.0983,4.52525 -2.22962,10.23975 -7.18112,10.371 -0.58838,0.0155 -1.50875,0 -1.50875,0 -3.24751,0 -3.08388,-2.29287 -3.08388,-2.29287 l 0.002,-18.27675 c 0,-0.821 0.459,-1.476 2.09875,-1.50875 z m -8.001374,-0.7215 11.870754,0 c 3.24812,0 9.28012,1.57437 9.64075,9.51037 0.0434,0.9525 0.26975,1.34238 0.0656,3.476 -0.53938,5.63325 -3.31125,10.46063 -9.34575,10.46063 l -12.362384,0 0.0074,-0.60975 c 2.0745,0 2.520875,-1.13975 2.5205,-2.03513 l -0.0049,-18.4955 c -6.25e-4,-1.39225 -1.372,-1.61775 -2.392,-1.61775 l 0,-0.68887"
         id="path12719"
         style="fill:#ffffff;fill-opacity:1;fill-rule:evenodd;stroke:none" />
      <path
         d="m 247.7631,488.54291 -0.0208,0 0.0208,0 z m 4.29925,-10.40863 0.30875,0 0,12.28025 c 0,0.57838 0.31338,0.78213 0.61713,0.78213 l 0.24637,0 c 0.002,0 0.225,-0.0209 0.41175,-0.0824 l 0.16475,0 0,0.82287 c -0.0844,0.11313 -1.742,0.65588 -2.30338,0.90475 -0.0135,0.005 -1.30675,0.4735 -1.81075,0.65863 -0.0945,0.0346 -0.37687,0.18512 -0.49324,0.18512 -0.0349,0 -0.0625,-0.0472 -0.0625,-0.10325 l 0,-2.63287 -0.10237,0 c -0.045,0.0456 -2.67637,2.674 -4.464,2.674 l -0.473,0 c -0.5805,0 -1.84275,-0.26088 -2.983,-1.9335 0,0 -0.432,-0.79925 -0.432,-1.6865 l 0,-9.50363 c 0,-1.08712 -0.95563,-0.96687 -1.13113,-0.96687 l -0.39037,0 c -0.0416,-0.0533 -0.0625,-0.0576 -0.0625,-0.1235 0,-0.18075 -0.007,-0.31488 0,-0.45213 0.013,-0.18737 0.47138,-0.14225 1.111,-0.24725 0.58437,-0.0966 0.671,-0.12137 1.152,-0.18512 0.80888,-0.10688 2.18188,-0.34963 2.304,-0.34963 0.10575,0 0.144,0.0349 0.144,0.12325 l 0,11.10825 c 0.045,0.2325 -0.01,0.41163 0.16475,0.84338 0.234,0.57562 1.35337,1.17225 2.18087,1.17225 0.1305,0 0.27113,0.009 0.34925,0 0.67001,-0.0819 1.36125,-0.40713 1.95475,-0.86363 0.30938,-0.23887 0.69863,-0.52237 0.69863,-0.90525 0,-1.014 0,-7.362 0,-9.21537 0,-0.44213 -0.33525,-0.95475 -0.80213,-0.96675 0,0 -0.099,0 -0.823,0 -0.0567,-0.0434 -0.0821,-0.0906 -0.0821,-0.1445 l 0,-0.43175 c 0,-0.21813 0.391,-0.21813 1.06987,-0.30838 0.45513,-0.0596 0.99338,-0.12137 1.17225,-0.14425 0.92926,-0.12337 2.25,-0.30837 2.36538,-0.30837"
         id="path12721"
         style="fill:#ffffff;fill-opacity:1;fill-rule:evenodd;stroke:none" />
      <path
         d="m 331.23872,452.40391 0,0.8125 3.97125,1.821 -3.97125,0 0,0.7445 7.3935,0 -7.3935,-3.378"
         id="path12723"
         style="fill:#ffffff;fill-opacity:1;fill-rule:nonzero;stroke:none" />
      <path
         d="m 354.4086,452.40391 0,0.8125 -3.97125,1.821 3.97125,0 0,0.7445 -7.3935,0 7.3935,-3.378"
         id="path12725"
         style="fill:#ffffff;fill-opacity:1;fill-rule:nonzero;stroke:none" />
      <path
         d="m 343.55747,503.07353 c 0,-2.39512 1.84275,-4.26987 3.26075,-4.58737 1.04175,4.1495 0.2245,0.68225 1.147,4.58737 l -4.40775,0"
         id="path12727"
         style="fill:#ffffff;fill-opacity:1;fill-rule:evenodd;stroke:none" />
      <path
         d="m 349.0131,503.07353 c 0.89212,-3.915 0.162,-0.67962 1.06487,-4.58737 1.50301,0.22525 3.24113,2.19225 3.24113,4.58737 l -4.306,0"
         id="path12729"
         style="fill:#ffffff;fill-opacity:1;fill-rule:evenodd;stroke:none" />
      <path
         d="m 337.7581,461.69378 c 0,0.33063 -0.26838,0.599 -0.59913,0.599 -0.33075,0 -0.59962,-0.26837 -0.59962,-0.599 0,-0.33075 0.26887,-0.59937 0.59962,-0.59937 0.33075,0 0.59913,0.26862 0.59913,0.59937"
         id="path12731"
         style="fill:#ffffff;fill-opacity:1;fill-rule:evenodd;stroke:none" />
      <path
         d="m 349.34497,461.64841 c 0,0.331 -0.26775,0.59925 -0.5985,0.59925 -0.33075,0 -0.60012,-0.26825 -0.60012,-0.59925 0,-0.33063 0.26937,-0.59925 0.60012,-0.59925 0.33075,0 0.5985,0.26862 0.5985,0.59925"
         id="path12733"
         style="fill:#ffffff;fill-opacity:1;fill-rule:evenodd;stroke:none" />
      <path
         d="m 352.35772,461.64816 c 0,1.9935 -1.61825,3.6115 -3.61125,3.6115 -1.994,0 -3.61125,-1.618 -3.61125,-3.6115 0,-1.9935 1.61725,-3.61125 3.61125,-3.61125 1.993,0 3.61125,1.61775 3.61125,3.61125 z m 1.24825,2.5e-4 c 0,2.68287 -2.178,4.86012 -4.8595,4.86012 -2.68312,0 -4.85937,-2.17725 -4.85937,-4.86012 0,-2.68263 2.17625,-4.85988 4.85937,-4.85988 2.6815,0 4.8595,2.17725 4.8595,4.85988"
         id="path12735"
         style="fill:#ffffff;fill-opacity:1;fill-rule:evenodd;stroke:none" />
      <path
         d="m 342.20297,463.66803 1.50863,0 -0.85275,4.29638 c -0.64463,-4.043 -0.0416,-0.47888 -0.65588,-4.29638"
         id="path12737"
         style="fill:#ffffff;fill-opacity:1;fill-rule:evenodd;stroke:none" />
      <path
         d="m 331.5751,473.23566 c 0,0.55125 -0.44725,0.99862 -0.999,0.99862 -0.55013,0 -0.9985,-0.44737 -0.9985,-0.99862 0,-0.551 0.44837,-0.99838 0.9985,-0.99838 0.55175,0 0.999,0.44738 0.999,0.99838"
         id="path12739"
         style="fill:#ffffff;fill-opacity:1;fill-rule:evenodd;stroke:none" />
      <path
         d="m 336.12847,473.23566 c 0,0.55125 -0.44712,0.99862 -0.99837,0.99862 -0.55188,0 -0.999,-0.44737 -0.999,-0.99862 0,-0.551 0.44712,-0.99838 0.999,-0.99838 0.55125,0 0.99837,0.44738 0.99837,0.99838"
         id="path12741"
         style="fill:#ffffff;fill-opacity:1;fill-rule:evenodd;stroke:none" />
      <path
         d="m 340.68247,473.23566 c 0,0.55125 -0.44712,0.99862 -0.99837,0.99862 -0.55188,0 -0.999,-0.44737 -0.999,-0.99862 0,-0.551 0.44712,-0.99838 0.999,-0.99838 0.55125,0 0.99837,0.44738 0.99837,0.99838"
         id="path12743"
         style="fill:#ffffff;fill-opacity:1;fill-rule:evenodd;stroke:none" />
      <path
         d="m 345.19097,473.23566 c 0,0.55125 -0.44775,0.99862 -0.9985,0.99862 -0.55125,0 -0.99837,-0.44737 -0.99837,-0.99862 0,-0.551 0.44712,-0.99838 0.99837,-0.99838 0.55075,0 0.9985,0.44738 0.9985,0.99838"
         id="path12745"
         style="fill:#ffffff;fill-opacity:1;fill-rule:evenodd;stroke:none" />
      <path
         d="m 349.69885,473.23566 c 0,0.55125 -0.44725,0.99862 -0.99737,0.99862 -0.55175,0 -0.99901,-0.44737 -0.99901,-0.99862 0,-0.551 0.44725,-0.99838 0.99901,-0.99838 0.55012,0 0.99737,0.44738 0.99737,0.99838"
         id="path12747"
         style="fill:#ffffff;fill-opacity:1;fill-rule:evenodd;stroke:none" />
      <path
         d="m 354.20785,473.23566 c 0,0.55125 -0.44725,0.99862 -0.99788,0.99862 -0.55125,0 -0.9985,-0.44737 -0.9985,-0.99862 0,-0.551 0.44725,-0.99838 0.9985,-0.99838 0.55063,0 0.99788,0.44738 0.99788,0.99838"
         id="path12749"
         style="fill:#ffffff;fill-opacity:1;fill-rule:evenodd;stroke:none" />
      <path
         d="m 331.5751,482.16266 c 0,0.5515 -0.44725,0.99862 -0.999,0.99862 -0.55013,0 -0.9985,-0.44712 -0.9985,-0.99862 0,-0.551 0.44837,-0.99813 0.9985,-0.99813 0.55175,0 0.999,0.44713 0.999,0.99813"
         id="path12751"
         style="fill:#ffffff;fill-opacity:1;fill-rule:evenodd;stroke:none" />
      <path
         d="m 336.12847,482.16266 c 0,0.5515 -0.44712,0.99862 -0.99837,0.99862 -0.55188,0 -0.999,-0.44712 -0.999,-0.99862 0,-0.551 0.44712,-0.99813 0.999,-0.99813 0.55125,0 0.99837,0.44713 0.99837,0.99813"
         id="path12753"
         style="fill:#ffffff;fill-opacity:1;fill-rule:evenodd;stroke:none" />
      <path
         d="m 336.12847,491.09003 c 0,0.551 -0.44712,0.99875 -0.99837,0.99875 -0.55188,0 -0.999,-0.44775 -0.999,-0.99875 0,-0.55137 0.44712,-0.9985 0.999,-0.9985 0.55125,0 0.99837,0.44713 0.99837,0.9985"
         id="path12755"
         style="fill:#ffffff;fill-opacity:1;fill-rule:evenodd;stroke:none" />
      <path
         d="m 340.68247,482.16266 c 0,0.5515 -0.44712,0.99862 -0.99837,0.99862 -0.55188,0 -0.999,-0.44712 -0.999,-0.99862 0,-0.551 0.44712,-0.99813 0.999,-0.99813 0.55125,0 0.99837,0.44713 0.99837,0.99813"
         id="path12757"
         style="fill:#ffffff;fill-opacity:1;fill-rule:evenodd;stroke:none" />
      <path
         d="m 345.19097,482.16266 c 0,0.5515 -0.44775,0.99862 -0.9985,0.99862 -0.55125,0 -0.99837,-0.44712 -0.99837,-0.99862 0,-0.551 0.44712,-0.99813 0.99837,-0.99813 0.55075,0 0.9985,0.44713 0.9985,0.99813"
         id="path12759"
         style="fill:#ffffff;fill-opacity:1;fill-rule:evenodd;stroke:none" />
      <path
         d="m 331.5751,491.09003 c 0,0.551 -0.44725,0.99875 -0.999,0.99875 -0.55013,0 -0.9985,-0.44775 -0.9985,-0.99875 0,-0.55137 0.44837,-0.9985 0.9985,-0.9985 0.55175,0 0.999,0.44713 0.999,0.9985"
         id="path12761"
         style="fill:#ffffff;fill-opacity:1;fill-rule:evenodd;stroke:none" />
      <path
         d="m 331.5751,500.01703 c 0,0.5515 -0.44725,0.99875 -0.999,0.99875 -0.55013,0 -0.9985,-0.44725 -0.9985,-0.99875 0,-0.551 0.44837,-0.99812 0.9985,-0.99812 0.55175,0 0.999,0.44712 0.999,0.99812"
         id="path12763"
         style="fill:#ffffff;fill-opacity:1;fill-rule:evenodd;stroke:none" />
      <path
         d="m 331.5751,479.36778 c 0,0.55088 -0.44725,0.998 -0.999,0.998 -0.55013,0 -0.9985,-0.44712 -0.9985,-0.998 0,-0.551 0.44837,-0.99837 0.9985,-0.99837 0.55175,0 0.999,0.44737 0.999,0.99837"
         id="path12765"
         style="fill:#ffffff;fill-opacity:1;fill-rule:evenodd;stroke:none" />
      <path
         d="m 336.12847,479.36778 c 0,0.55088 -0.44712,0.998 -0.99837,0.998 -0.55188,0 -0.999,-0.44712 -0.999,-0.998 0,-0.551 0.44712,-0.99837 0.999,-0.99837 0.55125,0 0.99837,0.44737 0.99837,0.99837"
         id="path12767"
         style="fill:#ffffff;fill-opacity:1;fill-rule:evenodd;stroke:none" />
      <path
         d="m 336.12847,488.29466 c 0,0.55087 -0.44712,0.99812 -0.99837,0.99812 -0.55188,0 -0.999,-0.44725 -0.999,-0.99812 0,-0.551 0.44712,-0.99863 0.999,-0.99863 0.55125,0 0.99837,0.44763 0.99837,0.99863"
         id="path12769"
         style="fill:#ffffff;fill-opacity:1;fill-rule:evenodd;stroke:none" />
      <path
         d="m 336.12847,497.22166 c 0,0.55087 -0.44712,0.9985 -0.99837,0.9985 -0.55188,0 -0.999,-0.44763 -0.999,-0.9985 0,-0.551 0.44712,-0.99825 0.999,-0.99825 0.55125,0 0.99837,0.44725 0.99837,0.99825"
         id="path12771"
         style="fill:#ffffff;fill-opacity:1;fill-rule:evenodd;stroke:none" />
      <path
         d="m 340.68247,479.36778 c 0,0.55088 -0.44712,0.998 -0.99837,0.998 -0.55188,0 -0.999,-0.44712 -0.999,-0.998 0,-0.551 0.44712,-0.99837 0.999,-0.99837 0.55125,0 0.99837,0.44737 0.99837,0.99837"
         id="path12773"
         style="fill:#ffffff;fill-opacity:1;fill-rule:evenodd;stroke:none" />
      <path
         d="m 340.68247,488.29466 c 0,0.55087 -0.44712,0.99812 -0.99837,0.99812 -0.55188,0 -0.999,-0.44725 -0.999,-0.99812 0,-0.551 0.44712,-0.99863 0.999,-0.99863 0.55125,0 0.99837,0.44763 0.99837,0.99863"
         id="path12775"
         style="fill:#ffffff;fill-opacity:1;fill-rule:evenodd;stroke:none" />
      <path
         d="m 345.19097,479.36778 c 0,0.55088 -0.44775,0.998 -0.9985,0.998 -0.55125,0 -0.99837,-0.44712 -0.99837,-0.998 0,-0.551 0.44712,-0.99837 0.99837,-0.99837 0.55075,0 0.9985,0.44737 0.9985,0.99837"
         id="path12777"
         style="fill:#ffffff;fill-opacity:1;fill-rule:evenodd;stroke:none" />
      <path
         d="m 349.69885,479.36778 c 0,0.55088 -0.44725,0.998 -0.99737,0.998 -0.55175,0 -0.99901,-0.44712 -0.99901,-0.998 0,-0.551 0.44725,-0.99837 0.99901,-0.99837 0.55012,0 0.99737,0.44737 0.99737,0.99837"
         id="path12779"
         style="fill:#ffffff;fill-opacity:1;fill-rule:evenodd;stroke:none" />
      <path
         d="m 331.5751,488.29466 c 0,0.55087 -0.44725,0.99812 -0.999,0.99812 -0.55013,0 -0.9985,-0.44725 -0.9985,-0.99812 0,-0.551 0.44837,-0.99863 0.9985,-0.99863 0.55175,0 0.999,0.44763 0.999,0.99863"
         id="path12781"
         style="fill:#ffffff;fill-opacity:1;fill-rule:evenodd;stroke:none" />
      <path
         d="m 331.5751,497.22166 c 0,0.55087 -0.44725,0.9985 -0.999,0.9985 -0.55013,0 -0.9985,-0.44763 -0.9985,-0.9985 0,-0.551 0.44837,-0.99825 0.9985,-0.99825 0.55175,0 0.999,0.44725 0.999,0.99825"
         id="path12783"
         style="fill:#ffffff;fill-opacity:1;fill-rule:evenodd;stroke:none" />
      <path
         d="m 333.82898,474.94903 c 0,0.55125 -0.44713,0.99863 -0.99838,0.99863 -0.55075,0 -0.999,-0.44738 -0.999,-0.99863 0,-0.551 0.44825,-0.99837 0.999,-0.99837 0.55125,0 0.99838,0.44737 0.99838,0.99837"
         id="path12785"
         style="fill:#ffffff;fill-opacity:1;fill-rule:evenodd;stroke:none" />
      <path
         d="m 333.82898,483.83091 c 0,0.5515 -0.44713,0.99862 -0.99838,0.99862 -0.55075,0 -0.999,-0.44712 -0.999,-0.99862 0,-0.551 0.44825,-0.998 0.999,-0.998 0.55125,0 0.99838,0.447 0.99838,0.998"
         id="path12787"
         style="fill:#ffffff;fill-opacity:1;fill-rule:evenodd;stroke:none" />
      <path
         d="m 333.82898,492.75791 c 0,0.5515 -0.44713,0.99862 -0.99838,0.99862 -0.55075,0 -0.999,-0.44712 -0.999,-0.99862 0,-0.551 0.44825,-0.99813 0.999,-0.99813 0.55125,0 0.99838,0.44713 0.99838,0.99813"
         id="path12789"
         style="fill:#ffffff;fill-opacity:1;fill-rule:evenodd;stroke:none" />
      <path
         d="m 333.82898,477.74453 c 0,0.55088 -0.44713,0.99813 -0.99838,0.99813 -0.55075,0 -0.999,-0.44725 -0.999,-0.99813 0,-0.55125 0.44825,-0.99875 0.999,-0.99875 0.55125,0 0.99838,0.4475 0.99838,0.99875"
         id="path12791"
         style="fill:#ffffff;fill-opacity:1;fill-rule:evenodd;stroke:none" />
      <path
         d="m 333.82898,486.62641 c 0,0.5515 -0.44713,0.99862 -0.99838,0.99862 -0.55075,0 -0.999,-0.44712 -0.999,-0.99862 0,-0.551 0.44825,-0.99863 0.999,-0.99863 0.55125,0 0.99838,0.44763 0.99838,0.99863"
         id="path12793"
         style="fill:#ffffff;fill-opacity:1;fill-rule:evenodd;stroke:none" />
      <path
         d="m 333.82898,495.55391 c 0,0.55087 -0.44713,0.998 -0.99838,0.998 -0.55075,0 -0.999,-0.44713 -0.999,-0.998 0,-0.5515 0.44825,-0.99925 0.999,-0.99925 0.55125,0 0.99838,0.44775 0.99838,0.99925"
         id="path12795"
         style="fill:#ffffff;fill-opacity:1;fill-rule:evenodd;stroke:none" />
      <path
         d="m 338.38297,474.94903 c 0,0.55125 -0.44712,0.99863 -0.99837,0.99863 -0.55188,0 -0.999,-0.44738 -0.999,-0.99863 0,-0.551 0.44712,-0.99837 0.999,-0.99837 0.55125,0 0.99837,0.44737 0.99837,0.99837"
         id="path12797"
         style="fill:#ffffff;fill-opacity:1;fill-rule:evenodd;stroke:none" />
      <path
         d="m 338.38297,483.83091 c 0,0.5515 -0.44712,0.99862 -0.99837,0.99862 -0.55188,0 -0.999,-0.44712 -0.999,-0.99862 0,-0.551 0.44712,-0.998 0.999,-0.998 0.55125,0 0.99837,0.447 0.99837,0.998"
         id="path12799"
         style="fill:#ffffff;fill-opacity:1;fill-rule:evenodd;stroke:none" />
      <path
         d="m 338.38297,492.75791 c 0,0.5515 -0.44712,0.99862 -0.99837,0.99862 -0.55188,0 -0.999,-0.44712 -0.999,-0.99862 0,-0.551 0.44712,-0.99813 0.999,-0.99813 0.55125,0 0.99837,0.44713 0.99837,0.99813"
         id="path12801"
         style="fill:#ffffff;fill-opacity:1;fill-rule:evenodd;stroke:none" />
      <path
         d="m 338.38297,477.74453 c 0,0.55088 -0.44712,0.99813 -0.99837,0.99813 -0.55188,0 -0.999,-0.44725 -0.999,-0.99813 0,-0.55125 0.44712,-0.99875 0.999,-0.99875 0.55125,0 0.99837,0.4475 0.99837,0.99875"
         id="path12803"
         style="fill:#ffffff;fill-opacity:1;fill-rule:evenodd;stroke:none" />
      <path
         d="m 338.38297,486.62641 c 0,0.5515 -0.44712,0.99862 -0.99837,0.99862 -0.55188,0 -0.999,-0.44712 -0.999,-0.99862 0,-0.551 0.44712,-0.99863 0.999,-0.99863 0.55125,0 0.99837,0.44763 0.99837,0.99863"
         id="path12805"
         style="fill:#ffffff;fill-opacity:1;fill-rule:evenodd;stroke:none" />
      <path
         d="m 342.93697,474.94903 c 0,0.55125 -0.44712,0.99863 -0.999,0.99863 -0.55125,0 -0.99837,-0.44738 -0.99837,-0.99863 0,-0.551 0.44712,-0.99837 0.99837,-0.99837 0.55188,0 0.999,0.44737 0.999,0.99837"
         id="path12807"
         style="fill:#ffffff;fill-opacity:1;fill-rule:evenodd;stroke:none" />
      <path
         d="m 342.93697,483.83091 c 0,0.5515 -0.44712,0.99862 -0.999,0.99862 -0.55125,0 -0.99837,-0.44712 -0.99837,-0.99862 0,-0.551 0.44712,-0.998 0.99837,-0.998 0.55188,0 0.999,0.447 0.999,0.998"
         id="path12809"
         style="fill:#ffffff;fill-opacity:1;fill-rule:evenodd;stroke:none" />
      <path
         d="m 342.93697,477.74453 c 0,0.55088 -0.44712,0.99813 -0.999,0.99813 -0.55125,0 -0.99837,-0.44725 -0.99837,-0.99813 0,-0.55125 0.44712,-0.99875 0.99837,-0.99875 0.55188,0 0.999,0.4475 0.999,0.99875"
         id="path12811"
         style="fill:#ffffff;fill-opacity:1;fill-rule:evenodd;stroke:none" />
      <path
         d="m 342.93697,486.62641 c 0,0.5515 -0.44712,0.99862 -0.999,0.99862 -0.55125,0 -0.99837,-0.44712 -0.99837,-0.99862 0,-0.551 0.44712,-0.99863 0.99837,-0.99863 0.55188,0 0.999,0.44763 0.999,0.99863"
         id="path12813"
         style="fill:#ffffff;fill-opacity:1;fill-rule:evenodd;stroke:none" />
      <path
         d="m 347.44547,474.94903 c 0,0.55125 -0.44837,0.99863 -0.9985,0.99863 -0.55175,0 -0.99837,-0.44738 -0.99837,-0.99863 0,-0.551 0.44662,-0.99837 0.99837,-0.99837 0.55013,0 0.9985,0.44737 0.9985,0.99837"
         id="path12815"
         style="fill:#ffffff;fill-opacity:1;fill-rule:evenodd;stroke:none" />
      <path
         d="m 347.44547,477.74453 c 0,0.55088 -0.44837,0.99813 -0.9985,0.99813 -0.55175,0 -0.99837,-0.44725 -0.99837,-0.99813 0,-0.55125 0.44662,-0.99875 0.99837,-0.99875 0.55013,0 0.9985,0.4475 0.9985,0.99875"
         id="path12817"
         style="fill:#ffffff;fill-opacity:1;fill-rule:evenodd;stroke:none" />
      <path
         d="m 351.95335,474.94903 c 0,0.55125 -0.44725,0.99863 -0.99738,0.99863 -0.55175,0 -0.999,-0.44738 -0.999,-0.99863 0,-0.551 0.44725,-0.99837 0.999,-0.99837 0.55013,0 0.99738,0.44737 0.99738,0.99837"
         id="path12819"
         style="fill:#ffffff;fill-opacity:1;fill-rule:evenodd;stroke:none" />
      <path
         d="m 351.95335,477.74453 c 0,0.55088 -0.44725,0.99813 -0.99738,0.99813 -0.55175,0 -0.999,-0.44725 -0.999,-0.99813 0,-0.55125 0.44725,-0.99875 0.999,-0.99875 0.55013,0 0.99738,0.4475 0.99738,0.99875"
         id="path12821"
         style="fill:#ffffff;fill-opacity:1;fill-rule:evenodd;stroke:none" />
      <path
         d="m 336.12847,470.44016 c 0,0.55162 -0.44712,0.99875 -0.99837,0.99875 -0.55188,0 -0.999,-0.44713 -0.999,-0.99875 0,-0.551 0.44712,-0.998 0.999,-0.998 0.55125,0 0.99837,0.447 0.99837,0.998"
         id="path12823"
         style="fill:#ffffff;fill-opacity:1;fill-rule:evenodd;stroke:none" />
      <path
         d="m 340.68247,470.44016 c 0,0.55162 -0.44712,0.99875 -0.99837,0.99875 -0.55188,0 -0.999,-0.44713 -0.999,-0.99875 0,-0.551 0.44712,-0.998 0.999,-0.998 0.55125,0 0.99837,0.447 0.99837,0.998"
         id="path12825"
         style="fill:#ffffff;fill-opacity:1;fill-rule:evenodd;stroke:none" />
      <path
         d="m 345.19097,470.44016 c 0,0.55162 -0.44775,0.99875 -0.9985,0.99875 -0.55125,0 -0.99837,-0.44713 -0.99837,-0.99875 0,-0.551 0.44712,-0.998 0.99837,-0.998 0.55075,0 0.9985,0.447 0.9985,0.998"
         id="path12827"
         style="fill:#ffffff;fill-opacity:1;fill-rule:evenodd;stroke:none" />
      <path
         d="m 349.69885,470.44016 c 0,0.55162 -0.44725,0.99875 -0.99737,0.99875 -0.55175,0 -0.99901,-0.44713 -0.99901,-0.99875 0,-0.551 0.44725,-0.998 0.99901,-0.998 0.55012,0 0.99737,0.447 0.99737,0.998"
         id="path12829"
         style="fill:#ffffff;fill-opacity:1;fill-rule:evenodd;stroke:none" />
      <path
         d="m 354.20785,470.44016 c 0,0.55162 -0.44725,0.99875 -0.99788,0.99875 -0.55125,0 -0.9985,-0.44713 -0.9985,-0.99875 0,-0.551 0.44725,-0.998 0.9985,-0.998 0.55063,0 0.99788,0.447 0.99788,0.998"
         id="path12831"
         style="fill:#ffffff;fill-opacity:1;fill-rule:evenodd;stroke:none" />
      <path
         d="m 356.64348,471.88328 c 0,0.551 -0.44725,0.99838 -0.99901,0.99838 -0.55125,0 -0.9985,-0.44738 -0.9985,-0.99838 0,-0.55125 0.44725,-0.99862 0.9985,-0.99862 0.55175,0 0.99901,0.44737 0.99901,0.99862"
         id="path12833"
         style="fill:#ffffff;fill-opacity:1;fill-rule:evenodd;stroke:none" />
      <path
         d="m 333.4966,471.83828 c 0,0.36688 -0.29813,0.66488 -0.666,0.66488 -0.36675,0 -0.666,-0.298 -0.666,-0.66488 0,-0.36725 0.29925,-0.66525 0.666,-0.66525 0.36787,0 0.666,0.298 0.666,0.66525"
         id="path12835"
         style="fill:#ffffff;fill-opacity:1;fill-rule:evenodd;stroke:none" />
      <path
         d="m 333.4966,480.76528 c 0,0.36738 -0.29813,0.66563 -0.666,0.66563 -0.36675,0 -0.666,-0.29825 -0.666,-0.66563 0,-0.36762 0.29925,-0.66587 0.666,-0.66587 0.36787,0 0.666,0.29825 0.666,0.66587"
         id="path12837"
         style="fill:#ffffff;fill-opacity:1;fill-rule:evenodd;stroke:none" />
      <path
         d="m 333.4966,489.69216 c 0,0.368 -0.29813,0.66575 -0.666,0.66575 -0.36675,0 -0.666,-0.29775 -0.666,-0.66575 0,-0.3675 0.29925,-0.66588 0.666,-0.66588 0.36787,0 0.666,0.29838 0.666,0.66588"
         id="path12839"
         style="fill:#ffffff;fill-opacity:1;fill-rule:evenodd;stroke:none" />
      <path
         d="m 333.4966,498.61966 c 0,0.3675 -0.29813,0.66575 -0.666,0.66575 -0.36675,0 -0.666,-0.29825 -0.666,-0.66575 0,-0.3675 0.29925,-0.66575 0.666,-0.66575 0.36787,0 0.666,0.29825 0.666,0.66575"
         id="path12841"
         style="fill:#ffffff;fill-opacity:1;fill-rule:evenodd;stroke:none" />
      <path
         d="m 338.04997,471.83828 c 0,0.36688 -0.2975,0.66488 -0.66537,0.66488 -0.36738,0 -0.666,-0.298 -0.666,-0.66488 0,-0.36725 0.29862,-0.66525 0.666,-0.66525 0.36787,0 0.66537,0.298 0.66537,0.66525"
         id="path12843"
         style="fill:#ffffff;fill-opacity:1;fill-rule:evenodd;stroke:none" />
      <path
         d="m 338.04997,480.76528 c 0,0.36738 -0.2975,0.66563 -0.66537,0.66563 -0.36738,0 -0.666,-0.29825 -0.666,-0.66563 0,-0.36762 0.29862,-0.66587 0.666,-0.66587 0.36787,0 0.66537,0.29825 0.66537,0.66587"
         id="path12845"
         style="fill:#ffffff;fill-opacity:1;fill-rule:evenodd;stroke:none" />
      <path
         d="m 338.04997,489.69216 c 0,0.368 -0.2975,0.66575 -0.66537,0.66575 -0.36738,0 -0.666,-0.29775 -0.666,-0.66575 0,-0.3675 0.29862,-0.66588 0.666,-0.66588 0.36787,0 0.66537,0.29838 0.66537,0.66588"
         id="path12847"
         style="fill:#ffffff;fill-opacity:1;fill-rule:evenodd;stroke:none" />
      <path
         d="m 342.55785,471.83828 c 0,0.36688 -0.2975,0.66488 -0.66488,0.66488 -0.36675,0 -0.66425,-0.298 -0.66425,-0.66488 0,-0.36725 0.2975,-0.66525 0.66425,-0.66525 0.36738,0 0.66488,0.298 0.66488,0.66525"
         id="path12849"
         style="fill:#ffffff;fill-opacity:1;fill-rule:evenodd;stroke:none" />
      <path
         d="m 342.55785,480.76528 c 0,0.36738 -0.2975,0.66563 -0.66488,0.66563 -0.36675,0 -0.66425,-0.29825 -0.66425,-0.66563 0,-0.36762 0.2975,-0.66587 0.66425,-0.66587 0.36738,0 0.66488,0.29825 0.66488,0.66587"
         id="path12851"
         style="fill:#ffffff;fill-opacity:1;fill-rule:evenodd;stroke:none" />
      <path
         d="m 347.06747,471.83828 c 0,0.36688 -0.29875,0.66488 -0.6655,0.66488 -0.36787,0 -0.666,-0.298 -0.666,-0.66488 0,-0.36725 0.29813,-0.66525 0.666,-0.66525 0.36675,0 0.6655,0.298 0.6655,0.66525"
         id="path12853"
         style="fill:#ffffff;fill-opacity:1;fill-rule:evenodd;stroke:none" />
      <path
         d="m 347.06747,480.76528 c 0,0.36738 -0.29875,0.66563 -0.6655,0.66563 -0.36787,0 -0.666,-0.29825 -0.666,-0.66563 0,-0.36762 0.29813,-0.66587 0.666,-0.66587 0.36675,0 0.6655,0.29825 0.6655,0.66587"
         id="path12855"
         style="fill:#ffffff;fill-opacity:1;fill-rule:evenodd;stroke:none" />
      <path
         d="m 351.62035,471.83828 c 0,0.36688 -0.29763,0.66488 -0.66438,0.66488 -0.36725,0 -0.66487,-0.298 -0.66487,-0.66488 0,-0.36725 0.29762,-0.66525 0.66487,-0.66525 0.36675,0 0.66438,0.298 0.66438,0.66525"
         id="path12857"
         style="fill:#ffffff;fill-opacity:1;fill-rule:evenodd;stroke:none" />
      <path
         d="m 331.28822,476.34678 c 0,0.3675 -0.29925,0.666 -0.66712,0.666 -0.36675,0 -0.6655,-0.2985 -0.6655,-0.666 0,-0.3675 0.29875,-0.66612 0.6655,-0.66612 0.36787,0 0.66712,0.29862 0.66712,0.66612"
         id="path12859"
         style="fill:#ffffff;fill-opacity:1;fill-rule:evenodd;stroke:none" />
      <path
         d="m 335.79547,476.34678 c 0,0.3675 -0.29862,0.666 -0.66537,0.666 -0.36738,0 -0.66488,-0.2985 -0.66488,-0.666 0,-0.3675 0.2975,-0.66612 0.66488,-0.66612 0.36675,0 0.66537,0.29862 0.66537,0.66612"
         id="path12861"
         style="fill:#ffffff;fill-opacity:1;fill-rule:evenodd;stroke:none" />
      <path
         d="m 335.79547,494.15578 c 0,0.36763 -0.29862,0.66638 -0.66537,0.66638 -0.36738,0 -0.66488,-0.29875 -0.66488,-0.66638 0,-0.36737 0.2975,-0.66625 0.66488,-0.66625 0.36675,0 0.66537,0.29888 0.66537,0.66625"
         id="path12863"
         style="fill:#ffffff;fill-opacity:1;fill-rule:evenodd;stroke:none" />
      <path
         d="m 340.30447,476.34678 c 0,0.3675 -0.2975,0.666 -0.666,0.666 -0.36787,0 -0.66537,-0.2985 -0.66537,-0.666 0,-0.3675 0.2975,-0.66612 0.66537,-0.66612 0.3685,0 0.666,0.29862 0.666,0.66612"
         id="path12865"
         style="fill:#ffffff;fill-opacity:1;fill-rule:evenodd;stroke:none" />
      <path
         d="m 340.30447,485.22891 c 0,0.3675 -0.2975,0.66575 -0.666,0.66575 -0.36787,0 -0.66537,-0.29825 -0.66537,-0.66575 0,-0.36813 0.2975,-0.66625 0.66537,-0.66625 0.3685,0 0.666,0.29812 0.666,0.66625"
         id="path12867"
         style="fill:#ffffff;fill-opacity:1;fill-rule:evenodd;stroke:none" />
      <path
         d="m 344.85735,476.34678 c 0,0.3675 -0.29812,0.666 -0.66488,0.666 -0.36675,0 -0.66424,-0.2985 -0.66424,-0.666 0,-0.3675 0.29749,-0.66612 0.66424,-0.66612 0.36675,0 0.66488,0.29862 0.66488,0.66612"
         id="path12869"
         style="fill:#ffffff;fill-opacity:1;fill-rule:evenodd;stroke:none" />
      <path
         d="m 344.85735,485.22891 c 0,0.3675 -0.29812,0.66575 -0.66488,0.66575 -0.36675,0 -0.66424,-0.29825 -0.66424,-0.66575 0,-0.36813 0.29749,-0.66625 0.66424,-0.66625 0.36675,0 0.66488,0.29812 0.66488,0.66625"
         id="path12871"
         style="fill:#ffffff;fill-opacity:1;fill-rule:evenodd;stroke:none" />
      <path
         d="m 349.41197,476.34678 c 0,0.3675 -0.29875,0.666 -0.6655,0.666 -0.36787,0 -0.666,-0.2985 -0.666,-0.666 0,-0.3675 0.29813,-0.66612 0.666,-0.66612 0.36675,0 0.6655,0.29862 0.6655,0.66612"
         id="path12873"
         style="fill:#ffffff;fill-opacity:1;fill-rule:evenodd;stroke:none" />
      <path
         d="m 331.28822,485.22891 c 0,0.3675 -0.29925,0.66575 -0.66712,0.66575 -0.36675,0 -0.6655,-0.29825 -0.6655,-0.66575 0,-0.36813 0.29875,-0.66625 0.6655,-0.66625 0.36787,0 0.66712,0.29812 0.66712,0.66625"
         id="path12875"
         style="fill:#ffffff;fill-opacity:1;fill-rule:evenodd;stroke:none" />
      <path
         d="m 331.28822,494.15578 c 0,0.36763 -0.29925,0.66638 -0.66712,0.66638 -0.36675,0 -0.6655,-0.29875 -0.6655,-0.66638 0,-0.36737 0.29875,-0.66625 0.6655,-0.66625 0.36787,0 0.66712,0.29888 0.66712,0.66625"
         id="path12877"
         style="fill:#ffffff;fill-opacity:1;fill-rule:evenodd;stroke:none" />
      <path
         d="m 331.28822,503.08328 c 0,0.36763 -0.29925,0.66575 -0.66712,0.66575 -0.36675,0 -0.6655,-0.29812 -0.6655,-0.66575 0,-0.368 0.29875,-0.66625 0.6655,-0.66625 0.36787,0 0.66712,0.29825 0.66712,0.66625"
         id="path12879"
         style="fill:#ffffff;fill-opacity:1;fill-rule:evenodd;stroke:none" />
      <path
         d="m 331.5751,470.44016 c 0,0.55162 -0.44725,0.99875 -0.999,0.99875 -0.55013,0 -0.9985,-0.44713 -0.9985,-0.99875 0,-0.551 0.44837,-0.998 0.9985,-0.998 0.55175,0 0.999,0.447 0.999,0.998"
         id="path12881"
         style="fill:#ffffff;fill-opacity:1;fill-rule:evenodd;stroke:none" />
      <path
         d="m 340.77022,461.64816 c 0,1.9935 -1.61825,3.6115 -3.61125,3.6115 -1.99287,0 -3.61125,-1.618 -3.61125,-3.6115 0,-1.9935 1.61838,-3.61125 3.61125,-3.61125 1.993,0 3.61125,1.61775 3.61125,3.61125 z m 1.24938,2.5e-4 c 0,2.68287 -2.1775,4.86012 -4.86062,4.86012 -2.6825,0 -4.86,-2.17725 -4.86,-4.86012 0,-2.68263 2.17749,-4.85988 4.86,-4.85988 2.68312,0 4.86062,2.17725 4.86062,4.85988"
         id="path12883"
         style="fill:#ffffff;fill-opacity:1;fill-rule:evenodd;stroke:none" />
      <path
         d="m 168.63735,477.78903 0.61712,0 c 0.527,0 2.0385,0.2675 3.08588,1.02825 0.74637,0.54325 1.2915,1.23425 1.31625,1.87213 0.005,0.15212 -0.002,0.23887 0,0.39112 0.0125,0.718 -0.76,1.17225 -1.17225,1.17225 0,0 -0.15188,0.0136 -0.247,0 -1.43375,-0.2005 -1.3905,-1.78425 -1.3905,-1.78425 -0.30375,-1.2585 -1.53113,-1.63037 -2.00363,-1.63037 l -0.24687,0 c -0.0164,0 -1.21563,-0.0269 -2.304,1.93362 -0.29813,0.53663 -0.80213,2.14125 -0.80213,2.6125 0,0.0495 -0.0371,0.18738 -0.0411,0.28788 -0.0495,0.9915 -0.0567,0.91675 -0.0619,1.21387 -0.007,0.37638 -0.003,0.695 0,0.71963 0.21038,2.00012 0.36225,1.89137 0.44888,2.34675 0,0 0.15187,0.52075 0.333,0.78 0.1395,0.2 0.45225,1.12337 0.92537,1.64575 0.67888,0.74875 1.33138,1.2135 2.40688,1.2135 0.103,0 0.22225,0.002 0.26775,0 0.0614,-10e-4 0.92987,-0.11913 1.7685,-0.55538 0.42187,-0.21812 0.95062,-0.62725 1.33762,-0.92562 0.29588,-0.2285 0.2875,-0.34938 0.391,-0.34938 0,0 0.42238,0.37588 0.42238,0.5345 0,0.0869 -0.35263,0.63338 -0.97813,1.35738 0,0 -0.81062,0.8405 -1.25612,1.15912 -0.45563,0.32513 -1.82188,1.042 -2.79613,1.042 0,0 -0.26275,0.0422 -0.576,0 -0.96362,-0.12975 -1.77812,-0.46037 -2.376,-0.84712 -0.79987,-0.51688 -1.64925,-1.51825 -1.92325,-1.90875 -1.16487,-1.659 -1.57162,-3.63875 -1.66612,-4.58738 -0.077,-0.77125 -0.0747,-0.95912 -0.077,-0.98825 0,0 -0.0236,-0.35212 0.0151,-1.02775 0.0281,-0.4905 0.45287,-2.03625 0.45287,-2.03625 0,0 0.40275,-0.9855 0.96638,-1.76937 0.35212,-0.4895 0.88475,-1.11075 1.54287,-1.58375 0.58,-0.418 2.18138,-1.31663 3.62025,-1.31663"
         id="path12885"
         style="fill:#ffffff;fill-opacity:1;fill-rule:nonzero;stroke:none" />
      <path
         d="m 266.23897,481.89466 c -0.0405,0.01 -0.0613,0.0208 -0.0613,0.0208 -0.0209,-0.0615 -0.0231,-0.0208 0.0613,-0.0208"
         id="path12887"
         style="fill:#ffffff;fill-opacity:1;fill-rule:evenodd;stroke:none" />
      <path
         d="m 262.9686,488.04528 0.0821,0 0,-0.0204 -0.0821,0 0,0.0204 z"
         id="path12889"
         style="fill:#ffffff;fill-opacity:1;fill-rule:nonzero;stroke:none" />
      <path
         d="m 289.1806,478.26991 0.16137,-0.005 0,12.28075 c 0,0.57787 0.31338,0.78175 0.61763,0.78175 l 0.247,0 c 0.001,0 0.22437,-0.0209 0.41112,-0.0825 l 0.16488,0 0,0.823 c -0.0844,0.11312 -1.74263,0.65575 -2.304,0.90525 -0.0125,0.004 -1.30613,0.473 -1.81013,0.658 -0.0945,0.0352 -0.37575,0.18512 -0.49337,0.18512 -0.0354,0 -0.0619,-0.0473 -0.0619,-0.10275 l 0,-2.63337 -0.10287,0 c -0.045,0.0456 -2.67638,2.67462 -4.464,2.67462 l -0.47363,0 c -0.58,0 -2.08187,-0.3735 -2.98237,-1.93425 0,0 -0.432,-0.79862 -0.432,-1.68625 l 0,-9.50375 c 0,-1.08762 -0.95575,-0.96687 -1.13175,-0.96687 l -0.38987,0 c -0.0416,-0.0532 -0.0619,-0.0576 -0.0619,-0.12363 0,-0.18062 -0.009,-0.31412 0,-0.452 0.0125,-0.18725 0.47025,-0.14225 1.111,-0.24712 0.58325,-0.0967 0.6705,-0.12088 1.15138,-0.18488 0.80837,-0.10712 2.18312,-0.34962 2.304,-0.34962 0.10525,0 0.1435,0.0349 0.1435,0.12325 l 0,11.108 c 0.0466,0.23237 -0.01,0.4115 0.16537,0.84325 0.234,0.57612 1.35337,1.17275 2.18025,1.17275 0.13213,0 0.27162,0.009 0.34988,0 0.66987,-0.0824 1.36175,-0.40763 1.95412,-0.864 0.311,-0.239 0.69862,-0.5225 0.69862,-0.90538 0,-1.014 0,-7.36187 0,-9.21525 0,-0.44225 -0.33475,-0.95475 -0.80162,-0.96687 0,0 -0.099,0 -0.82288,0 -0.0574,-0.0434 -0.0827,-0.0906 -0.0827,-0.14388 l 0,-0.43225 c 0,-0.21812 0.39101,-0.21812 1.0705,-0.30825 0.4545,-0.0598 0.99275,-0.12137 1.17225,-0.14412 0.92926,-0.12363 2.39675,-0.30138 2.51213,-0.30438"
         id="path12891"
         style="fill:#ffffff;fill-opacity:1;fill-rule:nonzero;stroke:none" />
      <path
         d="m 259.47385,477.85603 c 0.4775,0.0824 1.10075,0.1505 1.61712,0.28613 0.693,0.18325 0.68463,0.181 1.25438,0.45262 0.2295,0.10888 0.37012,0.12525 0.37012,0.28788 l 0,2.59225 c 0,0.0489 -0.0754,0.10275 -0.12375,0.10275 -0.135,0.004 -0.40662,0.0379 -0.70987,0.0143 -0.0635,-0.005 0.121,0.18137 -0.0506,-0.44663 -0.3065,-1.12112 -1.37862,-2.28675 -2.36637,-2.32412 -0.0569,-0.002 -0.5175,-0.009 -0.76,0 -0.9945,0.039 -1.56375,0.75687 -1.56375,1.666 0,1.37387 1.92262,3.11637 3.415,4.46387 0.74025,0.6685 2.77812,2.34113 2.85975,4.50488 0.0162,0.49162 -0.006,0.39887 0,0.80262 0.036,2.23563 -2.32938,3.41838 -4.44438,3.49688 -0.65137,0.0225 -0.6435,-0.004 -1.0895,0 -0.21437,10e-4 -0.90562,-0.0455 -1.66675,-0.24713 -0.65137,-0.1725 -1.481,-0.24012 -1.47425,-0.405 0.023,-0.60575 0,-2.12137 0,-2.72725 0,-0.005 -0.0231,-0.29437 0.14675,-0.29612 l 0.54625,-0.006 c 0.16813,-0.002 0.0877,0.21975 0.4725,0.86362 0.009,0.0143 0.27,0.55375 0.63838,0.88425 0.28125,0.25338 1.05025,0.80263 1.80962,0.80263 l 0.41175,0 c 0.3515,0 1.01413,-0.2285 1.35788,-0.55525 0.18225,-0.17313 0.61425,-0.68838 0.53825,-1.50625 -0.18675,-2.00513 -2.00475,-2.8675 -3.06838,-4.04788 -0.28687,-0.31762 -0.83362,-0.73675 -1.78987,-1.78975 -0.67113,-0.73825 -1.152,-1.79575 -1.152,-1.97475 0,0 -0.16488,-0.45275 -0.16488,-1.02837 l 0,-0.65813 c 0,-0.32525 0.18563,-0.71187 0.18563,-0.82275 0,0 0.27787,-1.12562 1.54237,-1.7695 0.55238,-0.28087 1.43888,-0.5685 2.09813,-0.59612 0.1255,-0.006 0.78137,-0.0841 1.1605,-0.019"
         id="path12893"
         style="fill:#ffffff;fill-opacity:1;fill-rule:evenodd;stroke:none" />
      <path
         d="m 204.76397,477.80878 c 0.47813,0.0824 1.10075,0.15025 1.61663,0.28588 0.6935,0.18325 0.68512,0.181 1.25488,0.45262 0.23062,0.10913 0.37012,0.1255 0.37012,0.28813 l 0,2.59162 c 0,0.0495 -0.0759,0.10275 -0.12312,0.10275 -0.13613,0.005 -0.40725,0.0379 -0.7105,0.0149 -0.063,-0.005 0.121,0.18125 -0.0506,-0.4465 -0.306,-1.12125 -1.37863,-2.28687 -2.36588,-2.32475 -0.0574,-0.002 -0.518,-0.007 -0.761,0 -0.99337,0.0389 -1.56325,0.75688 -1.56325,1.66663 0,1.37375 1.92325,3.11625 3.41438,4.46362 0.74087,0.66863 2.77937,2.34063 2.85925,4.505 0.0169,0.49113 -0.006,0.39888 0,0.80213 0.0371,2.23625 -2.32825,3.41887 -4.44263,3.49687 -0.6525,0.0225 -0.64412,-0.005 -1.09012,0 -0.21438,0.002 -0.90563,-0.0451 -1.66613,-0.24662 -0.65253,-0.17312 -1.48115,-0.24012 -1.4749,-0.40487 0.0236,-0.60588 0,-2.1215 0,-2.72788 0,-0.004 -0.0236,-0.294 0.14675,-0.29612 l 0.54562,-0.006 c 0.16938,-0.002 0.0889,0.22025 0.47363,0.86412 0.007,0.0143 0.2695,0.55313 0.63787,0.88438 0.28188,0.25275 1.05075,0.802 1.80963,0.802 l 0.41175,0 c 0.3515,0 1.01412,-0.22788 1.35725,-0.55538 0.18337,-0.1725 0.61487,-0.68775 0.53887,-1.50562 -0.18675,-2.005 -2.00525,-2.8675 -3.069,-4.048 -0.28575,-0.318 -0.833,-0.73663 -1.78925,-1.78963 -0.6705,-0.73875 -1.152,-1.79575 -1.152,-1.97475 0,0 -0.16487,-0.45262 -0.16487,-1.02887 l 0,-0.65813 c 0,-0.32462 0.18512,-0.71187 0.18512,-0.82287 0,0 0.27838,-1.125 1.5435,-1.769 0.55175,-0.281 1.43938,-0.56838 2.09813,-0.59663 0.12487,-0.005 0.78075,-0.0837 1.15987,-0.0184"
         id="path12895"
         style="fill:#ffffff;fill-opacity:1;fill-rule:evenodd;stroke:none" />
      <path
         d="m 157.9426,477.84666 c 0.47862,0.0824 1.10075,0.15025 1.61712,0.28587 0.693,0.18325 0.68513,0.18113 1.255,0.45263 0.23,0.10912 0.37013,0.1255 0.37013,0.28825 l 0,2.59162 c 0,0.0494 -0.076,0.10263 -0.12325,0.10263 -0.13613,0.005 -0.40725,0.038 -0.70988,0.0149 -0.0641,-0.005 0.11988,0.18125 -0.0511,-0.4465 -0.30662,-1.12125 -1.37875,-2.28688 -2.36587,-2.32475 -0.0574,-0.002 -0.51813,-0.009 -0.76113,0 -0.99387,0.0395 -1.56312,0.75687 -1.56312,1.66662 0,1.37388 1.92312,3.11625 3.41437,4.46375 0.74075,0.6685 2.77925,2.34063 2.85975,4.50438 0.0162,0.49212 -0.007,0.39937 0,0.80262 0.0365,2.23563 -2.32875,3.41888 -4.44325,3.49688 -0.6525,0.0225 -0.644,-0.004 -1.09062,0 -0.21376,0.003 -0.90513,-0.0456 -1.66613,-0.24662 -0.652,-0.17313 -1.48113,-0.24013 -1.47438,-0.40488 0.0231,-0.6065 0,-2.1215 0,-2.72787 0,-0.004 -0.0236,-0.29388 0.14625,-0.29613 l 0.54675,-0.006 c 0.16875,-0.002 0.0884,0.22038 0.4725,0.86413 0.008,0.0144 0.2695,0.55312 0.63788,0.88437 0.28187,0.25325 1.05137,0.802 1.81075,0.802 l 0.41112,0 c 0.35163,0 1.01425,-0.22787 1.35788,-0.55537 0.18287,-0.1725 0.61425,-0.68763 0.53837,-1.50563 -0.18675,-2.005 -2.00475,-2.868 -3.069,-4.04787 -0.28637,-0.31813 -0.83312,-0.73663 -1.78937,-1.78975 -0.671,-0.73875 -1.152,-1.79625 -1.152,-1.97475 0,0 -0.16475,-0.45263 -0.16475,-1.02888 l 0,-0.658 c 0,-0.32525 0.185,-0.712 0.185,-0.823 0,0 0.2785,-1.125 1.543,-1.769 0.55237,-0.281 1.43937,-0.56862 2.09812,-0.59625 0.12538,-0.006 0.78075,-0.0841 1.15988,-0.0188"
         id="path12897"
         style="fill:#ffffff;fill-opacity:1;fill-rule:evenodd;stroke:none" />
      <path
         d="m 142.1946,478.27566 0.16212,-0.005 0,12.2805 c 0,0.57787 0.3125,0.78162 0.61713,0.78162 l 0.247,0 c 0.002,0 0.224,-0.0203 0.41112,-0.0824 l 0.1645,0 0,0.823 c -0.0844,0.11313 -1.74212,0.65638 -2.30387,0.90513 -0.0124,0.005 -1.30625,0.47312 -1.81,0.65812 -0.0948,0.0353 -0.3765,0.18525 -0.49375,0.18525 -0.0349,0 -0.0616,-0.0474 -0.0616,-0.10287 l 0,-2.63288 -0.103,0 c -0.0452,0.0451 -2.67588,2.67413 -4.46363,2.67413 l -0.47325,0 c -0.57987,0 -2.08275,-0.373 -2.98287,-1.93363 0,0 -0.43175,-0.79875 -0.43175,-1.68687 l 0,-9.50325 c 0,-1.08813 -0.95663,-0.96675 -1.13125,-0.96675 l -0.39088,0 c -0.0412,-0.0539 -0.0619,-0.0577 -0.0619,-0.12363 0,-0.18125 -0.008,-0.31475 0,-0.45262 0.0124,-0.18725 0.47113,-0.14175 1.11075,-0.24663 0.58425,-0.0972 0.67075,-0.12137 1.152,-0.18537 0.80825,-0.10688 2.18275,-0.34975 2.30375,-0.34975 0.105,0 0.14425,0.0353 0.14425,0.12362 l 0,11.10775 c 0.045,0.23288 -0.0105,0.4115 0.1645,0.84375 0.2345,0.57575 1.3535,1.17225 2.1805,1.17225 0.13163,0 0.27138,0.009 0.34963,0 0.6705,-0.0824 1.36175,-0.407 1.95425,-0.864 0.31062,-0.2385 0.69925,-0.5225 0.69925,-0.90475 0,-1.01462 0,-7.3625 0,-9.21587 0,-0.44213 -0.33513,-0.95425 -0.80225,-0.96688 0,0 -0.0986,0 -0.82288,0 -0.0575,-0.0428 -0.0821,-0.0906 -0.0821,-0.14387 l 0,-0.43175 c 0,-0.21813 0.39075,-0.21813 1.06975,-0.30876 0.45462,-0.0596 0.9935,-0.12137 1.1725,-0.14387 0.92975,-0.12363 2.39675,-0.30125 2.512,-0.30438"
         id="path12899"
         style="fill:#ffffff;fill-opacity:1;fill-rule:nonzero;stroke:none" />
      <path
         d="m 148.8156,474.46291 0.0824,0 0,3.66137 c 0,0.002 -0.0546,0.22338 0.2065,0.222 l 3.167,-0.0162 c 0.0804,-5e-4 0.16475,0.0431 0.16475,0.12338 l -0.001,1.19937 c 0,0.0286 -0.0883,0.12363 -0.12375,0.12313 l -3.4005,-0.0133 c -0.15213,-10e-4 -0.1095,0.28125 -0.11375,0.351 0,0 0,7.29712 0,9.55587 0,1.43375 0.9155,2.016 1.87212,2.016 1.01213,0 1.59038,-0.76125 1.72825,-0.76125 0.0495,0 0.617,0.39713 0.617,0.51475 0,0.051 -0.42575,0.586 -0.82287,0.94588 -0.23238,0.20975 -0.80613,0.646 -1.02825,0.76125 -0.63388,0.32912 -1.24888,0.617 -2.09863,0.617 l -0.26762,0 c -1.77775,0 -3.01925,-1.464 -3.04813,-2.83838 0,-0.078 0.002,-10.3425 0.002,-10.51725 0,0 -0.20787,-0.70362 -0.96675,-0.7405 -0.27362,-0.0125 -0.41137,0 -0.65837,0 -0.078,-0.0989 -0.0617,-0.0598 -0.0617,-0.18512 0,-0.20375 -0.0121,-0.34763 0,-0.53488 0.008,-0.12975 1.039,-0.9955 1.1725,-1.152 0.0865,-0.1005 1.039,-0.95637 1.21375,-1.13125 0.0269,-0.0267 2.049,-1.93362 2.36562,-2.20087"
         id="path12901"
         style="fill:#ffffff;fill-opacity:1;fill-rule:nonzero;stroke:none" />
      <path
         d="m 307.37297,480.06641 c -0.099,-0.001 -0.8275,0.15112 -1.28312,0.34287 -0.64625,0.27238 -1.12275,0.659 -1.12275,0.659 -0.0804,0.0561 -0.18563,0.0809 -0.18788,0.182 -0.0112,1.3475 -0.004,9.89863 -0.004,9.89863 0,0.54487 0.11874,0.89487 0.55575,1.203 0.51749,0.36475 1.13512,-0.0336 1.13512,0.36475 l -0.002,0.49212 c 0,0.0864 -0.0529,0.10113 -0.10463,0.10113 0,0 -5.985,0.0176 -6.36187,-0.007 -0.0551,-0.002 -0.0703,-0.1825 -0.0635,-0.55863 0.002,-0.21975 -0.0929,-0.12537 0.972,-0.28412 0.5085,-0.0752 0.74925,-0.635 0.756,-0.87113 l 0.006,-8.81175 c -0.0428,-0.056 0.004,-0.59262 -0.045,-0.96725 -0.0151,-0.12025 -0.0112,-0.17637 -0.0405,-0.34225 -0.14737,-0.68937 -0.8645,-1.337 -1.7015,-1.35175 l -0.65812,-0.0112 c -0.70313,-0.0125 -1.65263,0.40325 -1.65263,0.40325 -0.6975,0.26363 -0.96137,0.49375 -1.1425,0.59763 -0.5315,0.3055 -0.513,0.4175 -0.513,0.434 0,0 -0.0112,9.66962 -0.009,9.74325 0.018,0.62612 0.175,0.85075 0.57825,1.10075 0.40113,0.24937 1.06313,0.0649 1.06313,0.32687 l 0.002,0.473 c 0,0.0863 -0.10063,0.11975 -0.18788,0.11975 0,0 -5.84887,0.005 -6.07662,0 -0.12488,-0.002 -0.09,-0.14512 -0.0923,-0.2385 l -0.005,-0.396 c -0.004,-0.18675 0.27562,-0.0522 0.8095,-0.21975 0.414,-0.1285 0.61312,-0.47075 0.6305,-0.77075 0.006,-0.14175 -0.004,-9.4075 -0.004,-9.4075 0,-0.006 0.0135,-1.13487 -0.2435,-1.46225 -0.508,-0.64275 -1.1745,-0.24062 -1.16275,-0.59662 0,0 -0.01,-0.2945 0,-0.4175 0.007,-0.0927 0.4,-0.23338 1.12725,-0.48825 0.598,-0.20988 0.70762,-0.27363 1.18012,-0.45275 2.119,-0.80438 2.05088,-0.9115 2.29838,-0.90713 0.031,6.3e-4 0.0517,0.002 0.0821,0.001 -0.014,0.78163 0.0135,1.70675 0.002,2.32575 0,0 -0.0196,0.27638 0.099,0.20763 0.499,-0.2895 1.34613,-0.92288 1.37425,-0.94313 0.28575,-0.20875 0.96463,-0.58612 1.3725,-0.81962 0.30538,-0.17575 1.59863,-0.80038 2.72863,-0.79563 0.2475,8.8e-4 0.3915,0.006 0.6385,0.0112 0,0 1.01187,0.13088 1.63062,0.85175 0.0461,0.0528 0.4765,0.53888 0.603,0.8125 0.18338,0.39325 0.25713,0.78713 0.30663,0.86138 0.006,0.009 0.61425,-0.59825 1.427,-1.18063 0.52245,-0.37232 1.25595,-0.72832 1.2892,-0.74582 0,0 1.34488,-0.73088 2.462,-0.71138 l 0.45288,0.007 c 1.449,0.0252 3.41437,1.22188 3.37162,3.63888 -0.0112,0.61087 0.01,9.45437 0.01,9.45437 0,0 -0.0241,1.67425 1.34725,1.55838 l 0.27788,0.0422 c 0,0 0.081,0.13462 0.0793,0.18625 l -0.0169,0.47675 c -0.004,0.0906 0.0146,0.11712 -0.20525,0.11712 -1.90912,0 -5.17,0.0159 -6.07787,0 0,0 -0.20075,0.0571 -0.20525,-0.0908 -0.008,-0.28837 0.006,-0.42837 0,-0.54162 -0.0164,-0.3065 0.4955,-0.0191 1.09125,-0.46363 0.3735,-0.27737 0.468,-0.62887 0.46912,-1.20837 0,0 -0.01,-8.4705 0.006,-8.71938 0.031,-0.50487 -0.52812,-2.21425 -2.46937,-2.24837 -0.11525,-10e-4 -0.38363,0.0199 -0.59563,0.0362"
         id="path12903"
         style="fill:#ffffff;fill-opacity:1;fill-rule:nonzero;stroke:none" />
      <path
         d="m 226.93035,493.35066 -0.51413,0.009 c -0.18725,-0.004 -7.40075,-19.3105 -7.56225,-19.381 -0.0146,0.13125 -0.32512,16.28837 -0.32512,16.28837 -0.006,0.34375 0.12038,1.35175 0.73012,1.78188 0.43263,0.30375 0.60813,0.42412 1.34663,0.523 0.0958,0.0126 0.39375,-0.0495 0.39375,0.0983 l 0,0.64 c -0.44775,0 -6.23863,0.002 -6.3765,0 -0.13162,-0.002 -0.158,-0.0747 -0.15575,-0.19275 l 0.007,-0.4225 c 0.001,-0.1555 0.19125,-0.129 0.22775,-0.1285 1.35963,0.0236 2.17638,-0.90863 2.19887,-2.2045 0.001,-0.051 0.79925,-17.494 0.79925,-17.494 0.0558,-1.22188 -1.12725,-2.02763 -1.13737,-2.03575 -0.63562,-0.59763 -1.96475,-0.48513 -2.14813,-0.67538 0,0 -0.0214,-0.68062 0.0529,-0.68137 1.37925,-0.0417 6.43325,0 6.43325,0 0.13388,-0.0451 6.50987,18.346 6.77363,18.29 0.3105,0.0983 6.385,-18.2915 6.47612,-18.29 4.18388,0.0423 5.50288,-0.007 5.92088,0 0.007,0.0145 0.002,0.46825 -0.0135,0.5975 -0.022,0.19912 -0.87025,-0.02 -1.6105,0.43412 -0.65813,0.40388 -0.85775,1.01975 -0.87125,1.56875 -0.0242,1.00988 0.0506,18.35213 0.0506,18.35213 0.004,1.21237 0.75825,2.02637 1.83763,2.04512 0,0 0.63962,0.084 0.63962,0.1725 0.002,0.12513 -0.005,0.38063 -0.009,0.54538 -0.001,0.0741 0.006,0.10487 -0.1625,0.10825 -1.14075,0.0275 -7.99375,0.0149 -8.19962,0.0113 -0.0967,-0.001 -0.1215,-0.1175 -0.12088,-0.20925 l 0.009,-0.49388 c 0.005,-0.27962 0.9405,0.0351 1.65488,-0.46462 0.0765,-0.0523 0.72612,-0.33138 0.72675,-1.63325 l 0.0236,-16.64375 -0.0619,-7.5e-4 c -0.10413,0.11312 -6.89513,19.484 -7.03525,19.48625"
         id="path12905"
         style="fill:#ffffff;fill-opacity:1;fill-rule:nonzero;stroke:none" />
      <path
         d="m 177.8331,480.38666 c 0,0 -0.0129,0.0715 0.0428,0.1495 0.39887,-0.28563 2.58075,-2.35575 4.78637,-2.4565 0.072,-0.002 0.45225,0.0143 0.45225,0.0143 1.0395,0.0321 2.37875,0.71787 2.8715,2.29275 0.1345,0.42962 0.23513,0.78887 0.23463,1.27225 l -0.01,9.80475 c 0.257,1.04975 0.909,1.16787 1.73812,1.159 0.18225,-0.002 0.13275,0.5395 0.13275,0.5395 0.0567,0.22962 -0.12887,0.13837 -0.46187,0.139 l -5.95688,0.01 c -0.0799,0 -0.11925,0.006 -0.12312,-0.0825 -0.009,-0.16638 -0.0321,-0.38663 -0.0157,-0.518 0.023,-0.19113 0.40275,-0.0406 0.96862,-0.312 0.27163,-0.12963 0.585,-0.50263 0.62213,-0.94925 l -0.0203,0.1445 c 0.0743,-0.41975 0.0743,-0.59113 0.0613,-0.88438 l 0,-8.10462 c -0.0984,-0.75313 -0.0736,-1.61288 -1.41913,-2.15988 -0.0866,-0.0352 -0.414,-0.17475 -0.72175,-0.20937 -0.22775,-0.0252 -0.482,-0.01 -0.482,-0.01 -0.0439,-10e-4 -0.4545,0.0159 -1.38825,0.42512 -0.01,0.004 -1.31687,0.66138 -1.31625,0.88438 l 0.0113,10.07562 c 0.041,0.40925 0.28575,0.691 0.56475,0.847 0.44825,0.251 0.97475,0.0576 0.98713,0.329 0.004,0.0989 0.0203,0.42025 -0.001,0.47413 -5e-4,10e-4 -0.0759,0.072 -0.18563,0.0736 -0.99675,0.016 -6.00525,0.008 -6.00525,0.008 -0.14562,5e-4 -0.1395,-0.0391 -0.144,-0.16425 -0.004,-0.15275 0,-0.239 0,-0.39125 -0.001,-0.20975 0.39325,-0.0554 1.04963,-0.37025 0.18112,-0.0867 0.463,-0.26913 0.53437,-0.82225 0.0619,-0.3125 0.0619,-0.50863 0.0619,-0.88438 l 0.004,-19.37662 -0.0444,-0.28862 c -0.0652,-0.42325 -0.40113,-1.10888 -0.90513,-1.27563 -0.3335,-0.11087 -0.62325,-0.0389 -0.78187,-0.1645 l -0.009,-0.59537 c -0.003,-0.1775 0.0749,-0.0689 1.14075,-0.53588 0.42362,-0.1855 0.90287,-0.36612 1.19312,-0.49387 2.13688,-0.94813 2.3445,-1.00575 2.45138,-1.02938 0.0624,-0.0137 0.0821,0.0371 0.0821,0.103 l 0.001,13.3335"
         id="path12907"
         style="fill:#ffffff;fill-opacity:1;fill-rule:evenodd;stroke:none" />
    </g>
  </g>
</svg>
